<?xml version="1.0" standalone="no"?>
<!DOCTYPE svg PUBLIC "-//W3C//DTD SVG 20010904//EN"
 "http://www.w3.org/TR/2001/REC-SVG-20010904/DTD/svg10.dtd">
<svg version="1.0" xmlns="http://www.w3.org/2000/svg"
 width="548.000000pt" height="548.000000pt" viewBox="0 0 548.000000 548.000000"
 preserveAspectRatio="xMidYMid meet">
<metadata>
Created by potrace 1.14, written by Peter Selinger 2001-2017
</metadata>
<g transform="translate(0.000000,548.000000) scale(0.100000,-0.100000)"
fill="#000000" stroke="none">
<path d="M2470 5476 c-3 -2 -23 -7 -45 -10 -23 -4 -50 -8 -62 -10 -11 -3 -36
-7 -54 -10 -19 -3 -43 -8 -55 -10 -12 -2 -45 -7 -75 -11 -30 -4 -56 -8 -59
-10 -3 -2 -26 -6 -50 -10 -56 -8 -506 -84 -534 -90 -12 -2 -39 -7 -61 -10 -22
-3 -47 -7 -55 -10 -8 -2 -37 -6 -63 -10 -26 -3 -71 -10 -100 -16 -29 -5 -68
-12 -87 -15 -19 -3 -46 -7 -60 -10 -14 -3 -38 -7 -55 -9 -31 -5 -73 -12 -115
-19 -14 -3 -41 -7 -60 -10 -19 -3 -47 -8 -63 -11 -15 -3 -53 -9 -85 -15 -31
-6 -66 -12 -77 -14 -11 -2 -42 -7 -68 -10 -27 -4 -59 -9 -70 -12 -12 -2 -33
-6 -47 -8 -41 -7 -115 -20 -120 -21 -3 -1 -30 -5 -60 -9 -30 -5 -64 -10 -75
-12 -29 -6 -76 -14 -110 -18 -40 -6 -65 -16 -65 -27 0 -5 8 -12 18 -15 9 -3
26 -10 37 -15 11 -4 47 -17 80 -28 102 -34 349 -121 370 -130 11 -5 29 -11 40
-14 23 -6 281 -94 310 -107 11 -5 93 -34 182 -65 148 -51 164 -55 185 -42 33
21 200 129 358 232 74 49 187 122 250 163 344 223 421 274 532 347 67 44 121
85 120 90 -1 10 -44 20 -52 11z"/>
<path d="M2876 5471 c-7 -10 53 -61 72 -61 6 0 12 -3 14 -7 5 -12 95 -73 107
-73 6 0 11 -4 11 -10 0 -5 4 -10 9 -10 6 0 63 -35 128 -78 65 -43 161 -105
213 -139 52 -34 100 -66 107 -72 7 -6 14 -11 17 -11 6 0 243 -153 263 -170 7
-6 15 -10 18 -10 3 0 11 -5 18 -11 7 -5 41 -29 77 -52 36 -23 102 -66 147 -95
l82 -54 443 155 c244 85 477 167 518 181 277 96 284 101 165 121 -43 7 -316
54 -345 59 -14 3 -43 7 -65 11 -22 3 -80 12 -130 21 -49 8 -103 17 -120 20
-16 2 -43 7 -60 11 -16 3 -37 7 -45 8 -47 6 -145 23 -145 25 0 1 -11 3 -25 4
-14 2 -39 6 -56 9 -17 4 -48 9 -70 12 -21 2 -75 11 -119 20 -44 8 -97 17 -119
19 -21 3 -46 8 -55 10 -9 3 -38 7 -64 10 -27 3 -52 8 -55 10 -4 2 -29 7 -57
10 -27 4 -61 9 -75 11 -14 3 -38 7 -55 10 -16 2 -41 6 -55 9 -26 5 -123 22
-175 30 -16 3 -127 22 -245 42 -118 20 -227 38 -242 40 -14 3 -29 1 -32 -5z"/>
<path d="M2605 5315 c-44 -30 -85 -58 -92 -64 -7 -6 -15 -11 -18 -11 -4 0 -25
-13 -48 -29 -23 -16 -123 -81 -222 -145 -99 -64 -187 -121 -195 -126 -8 -6
-51 -34 -95 -62 -44 -28 -133 -87 -197 -130 -65 -43 -122 -78 -128 -78 -5 0
-10 -4 -10 -10 0 -5 -4 -10 -10 -10 -19 0 -141 -93 -133 -101 7 -7 257 -98
368 -134 22 -7 157 -54 300 -104 143 -51 319 -112 390 -137 72 -25 142 -50
157 -56 30 -11 6 -18 388 115 102 36 253 88 335 117 83 28 157 54 165 57 8 3
20 7 25 9 6 1 62 21 125 44 63 23 135 48 160 56 25 7 54 20 65 29 17 13 18 16
5 24 -8 6 -22 15 -30 21 -8 6 -125 82 -260 169 -135 88 -250 164 -257 170 -7
6 -14 11 -17 11 -3 0 -76 46 -163 103 -87 57 -192 125 -233 152 -41 27 -119
77 -172 112 -54 35 -103 63 -110 62 -7 0 -49 -25 -93 -54z"/>
<path d="M25 4860 c-5 -7 96 -151 178 -255 4 -5 40 -53 80 -105 39 -52 75 -96
79 -98 4 -2 8 -8 8 -13 0 -9 88 -126 117 -157 7 -7 13 -17 13 -21 0 -4 8 -16
18 -27 10 -10 99 -127 198 -259 307 -408 564 -749 577 -765 7 -9 115 -153 242
-320 126 -168 233 -309 237 -315 4 -5 28 -37 53 -70 24 -33 48 -65 52 -70 5
-6 28 -37 53 -70 25 -33 47 -62 50 -65 3 -3 129 -170 280 -372 319 -426 355
-458 240 -213 -27 59 -50 108 -50 110 0 2 -22 51 -50 110 -27 59 -50 108 -50
110 0 2 -17 41 -39 87 -21 45 -60 130 -86 188 -26 58 -67 147 -91 198 -24 51
-44 95 -44 97 0 2 -18 43 -41 92 -22 48 -49 106 -59 128 -80 178 -431 947
-461 1013 -22 46 -39 85 -39 87 0 2 -21 47 -46 102 -26 54 -63 136 -84 183
-21 47 -53 117 -71 155 -18 39 -33 72 -34 75 -11 37 -32 60 -64 68 -32 9 -145
48 -511 177 -413 145 -642 225 -646 225 -2 0 -6 -4 -9 -10z"/>
<path d="M5185 4809 c-93 -33 -177 -63 -185 -66 -8 -3 -19 -7 -25 -9 -5 -1
-68 -23 -140 -49 -71 -26 -137 -48 -145 -50 -8 -2 -123 -42 -255 -89 -132 -47
-245 -86 -251 -86 -11 0 -25 -26 -79 -145 -180 -396 -273 -602 -297 -655 -17
-36 -41 -89 -54 -117 -13 -29 -36 -79 -50 -110 -15 -32 -71 -155 -124 -274
-54 -120 -103 -225 -108 -235 -12 -24 -45 -98 -47 -104 0 -3 -18 -41 -38 -84
-20 -43 -37 -80 -37 -82 0 -1 -25 -55 -55 -119 -30 -65 -55 -119 -55 -120 0
-2 -15 -36 -34 -77 -39 -84 -228 -499 -261 -573 -13 -27 -32 -71 -44 -97 -11
-26 -21 -52 -21 -57 0 -6 -4 -11 -10 -11 -5 0 -10 -9 -10 -19 0 -11 -4 -23
-10 -26 -14 -9 -12 -45 3 -45 6 1 71 80 142 176 72 96 138 184 148 194 9 11
17 24 17 29 0 6 6 14 13 18 7 4 30 33 52 63 22 30 43 57 47 58 5 2 8 8 8 14 0
5 6 15 13 22 6 7 22 26 34 42 12 16 96 128 187 249 91 121 175 232 187 247 11
15 114 152 229 305 115 153 213 283 217 288 5 6 49 64 99 130 49 66 94 125 99
131 6 6 19 23 30 38 31 43 88 120 98 131 4 6 69 91 143 190 74 99 147 195 162
214 15 18 31 40 36 49 5 8 15 22 22 31 8 9 41 52 73 96 33 44 64 85 68 90 5 6
22 28 38 50 17 22 32 42 35 45 3 3 30 39 60 80 30 41 60 82 67 90 7 8 32 42
57 75 25 33 49 65 53 70 84 108 104 147 75 145 -4 -1 -83 -28 -177 -61z"/>
<path d="M1459 4363 c-3 -22 5 -48 37 -113 18 -39 34 -72 34 -74 0 -2 18 -43
40 -90 22 -47 58 -125 80 -172 22 -47 40 -87 40 -89 0 -2 23 -51 50 -110 28
-59 50 -108 50 -110 0 -2 20 -45 44 -96 86 -182 196 -429 196 -439 0 -5 4 -10
8 -10 4 0 14 -16 21 -35 10 -29 300 -669 376 -830 12 -27 34 -75 48 -105 37
-83 125 -275 168 -368 22 -46 44 -82 50 -80 12 4 27 29 62 108 14 30 38 84 55
120 17 36 50 110 75 165 25 55 61 134 80 175 19 41 45 98 57 125 24 53 56 124
111 240 18 39 33 75 35 80 1 6 27 63 58 128 31 64 56 119 56 121 0 2 18 42 39
88 22 45 76 164 121 263 44 99 90 197 101 218 11 20 17 37 13 37 -3 0 -2 6 4
13 6 7 33 62 60 123 27 60 65 143 85 184 19 41 55 120 80 175 73 163 98 216
129 284 19 40 26 67 20 73 -6 6 -76 -14 -193 -55 -101 -36 -204 -72 -229 -80
-25 -9 -115 -40 -200 -71 -85 -30 -171 -60 -190 -66 -19 -7 -124 -44 -234 -82
l-199 -69 -61 22 c-33 12 -144 50 -246 85 -102 35 -192 67 -200 71 -8 3 -17 7
-20 8 -79 24 -97 30 -105 35 -5 4 -28 13 -50 20 -42 13 -229 77 -255 87 -8 4
-17 7 -20 8 -25 6 -59 18 -75 25 -23 10 -194 70 -201 70 -2 0 -5 -3 -5 -7z"/>
<path d="M1129 745 c-107 -29 -204 -106 -247 -195 -20 -44 -41 -133 -37 -161
1 -8 5 -38 9 -67 18 -148 149 -275 309 -300 30 -5 77 -7 106 -5 60 3 168 30
191 48 8 6 27 16 43 23 l27 12 0 149 0 149 -75 0 c-86 0 -77 14 -76 -126 l0
-83 -36 -15 c-35 -15 -118 -20 -160 -11 -96 23 -164 112 -165 215 0 66 2 74
26 125 58 120 242 150 364 60 27 -20 35 -22 45 -11 8 7 30 27 50 45 22 20 35
38 31 47 -7 19 -78 66 -134 89 -56 23 -206 30 -271 12z"/>
<path d="M332 726 c-21 -45 -46 -101 -47 -106 -1 -3 -16 -35 -33 -72 -17 -37
-42 -93 -56 -125 -13 -32 -38 -89 -56 -128 -121 -268 -120 -265 -105 -266 8 0
45 -1 83 -2 67 -1 67 -1 84 34 20 39 141 328 183 437 15 39 31 72 36 72 4 0
18 -28 32 -62 45 -110 107 -261 121 -292 8 -17 26 -62 42 -101 15 -38 33 -74
39 -80 10 -8 82 -11 162 -6 7 1 5 14 -7 39 -10 20 -46 100 -80 177 -34 77 -72
160 -83 185 -11 25 -21 47 -22 50 0 3 -14 32 -29 65 -15 33 -35 78 -44 100 -9
22 -24 54 -34 70 -17 29 -20 30 -97 31 -71 1 -80 -1 -89 -20z"/>
<path d="M1864 641 c-26 -58 -51 -112 -57 -118 -5 -7 -7 -13 -3 -13 3 0 -3
-17 -14 -37 -10 -21 -30 -65 -45 -98 -31 -73 -57 -130 -111 -249 -23 -50 -40
-93 -38 -95 1 -2 38 -4 81 -4 l78 -1 21 39 c11 22 21 42 21 45 0 3 7 21 16 40
8 19 37 87 62 150 26 63 52 126 58 140 6 14 11 27 12 30 0 3 6 14 12 25 6 11
11 22 11 25 3 36 42 56 42 22 0 -10 4 -22 8 -27 5 -6 50 -111 101 -235 50
-124 95 -231 100 -238 5 -9 35 -14 90 -15 94 -3 93 -5 47 96 -21 44 -60 131
-133 297 -9 19 -33 71 -53 115 -21 44 -48 105 -60 135 -13 30 -27 60 -32 66
-5 7 -40 11 -88 11 l-79 -1 -47 -105z"/>
<path d="M2357 741 c-2 -3 -3 -33 -2 -66 l0 -60 115 -5 116 -5 -1 -280 c-1
-154 0 -284 2 -290 3 -10 150 -12 159 -2 3 3 6 134 6 291 l0 286 114 0 c94 0
114 3 115 15 0 8 1 39 1 68 l1 52 -312 1 c-171 1 -313 -2 -314 -5z"/>
<path d="M3075 740 c-9 -14 -3 -710 6 -711 12 -1 91 -1 128 0 l29 1 -1 358 -2
357 -78 1 c-43 0 -80 -2 -82 -6z"/>
<path d="M3371 678 l2 -68 188 0 c108 0 189 -4 189 -9 0 -5 -3 -11 -8 -13 -4
-1 -91 -104 -193 -228 l-186 -225 0 -53 c0 -31 4 -52 11 -53 81 -5 609 -2 613
5 7 11 7 111 0 122 -3 5 -93 8 -201 8 -108 -1 -196 1 -196 3 0 3 87 110 193
238 l193 233 0 53 -1 54 -303 1 -303 0 2 -68z"/>
<path d="M4100 666 c-2 -384 -1 -629 4 -633 10 -11 546 -8 547 2 7 64 5 116
-3 121 -6 4 -93 6 -193 6 -209 -1 -191 -10 -190 98 l0 65 163 0 c184 0 176 -4
170 85 l-3 45 -145 2 c-80 0 -154 1 -165 2 -18 1 -20 8 -21 76 0 69 1 75 20
76 12 1 97 2 190 3 l170 1 0 58 c1 32 -3 62 -9 67 -5 4 -128 7 -272 7 l-263 0
0 -81z"/>
<path d="M4790 686 c-3 -372 1 -650 9 -655 5 -3 31 -5 58 -4 26 1 60 2 74 2
l25 1 -1 95 c-1 109 -5 105 92 103 l62 -1 69 -101 70 -101 81 1 c45 1 84 4 87
6 2 3 -30 54 -72 114 l-76 108 23 15 c45 29 95 88 106 127 32 106 13 195 -56
264 -74 73 -115 84 -353 86 l-198 1 0 -61z m392 -93 c55 -28 74 -85 52 -158
-16 -51 -72 -76 -169 -75 -27 1 -62 1 -77 0 -16 0 -29 3 -29 7 -4 24 -5 229
-1 236 7 14 192 6 224 -10z"/>
</g>
</svg>
